# xmcd
#
# Track frame offsets: 
#        150
#        10415
#        22338
#        35810
#        47908
#        59195
#        68850
#        79524
#        89400
#        100725
#        113664
#        125045
#        141579
#        151118
#        162412
#        174059
#
# Disc length: 2547 seconds
#
# Revision: 0
# Processed by: cddbd v1.5.2PL0 Copyright (c) Steve Scherf et al.
# Submitted via: ExactAudioCopy v0.99pb5
#
DISCID=e009f110
DTITLE=Various Artist - Sixties - The Definitive Collection [CD 2 Of 2)
DYEAR=2010
DGENRE=Oldies
TTITLE0=Del Sahnnon - Runaway
TTITLE1=The Archies - Sugar Sugar
TTITLE2=Andy Williams - Can't Get Used To Losing You
TTITLE3=Bobby Vinton - Blue Velvet
TTITLE4=The Lovin' Spoonful - Daydream
TTITLE5=The Byrds - Mr. Tambourine Man
TTITLE6=Johnny Cash - Ring Of Fire
TTITLE7=The Herd -  I Don't Want Our Loving To Die
TTITLE8=The Shirelles - Will You Love Me Tommorow
TTITLE9=Crispian St. Peters - You Were On My Mind
TTITLE10=Unit 4 and 2 - Concrete And Clay
TTITLE11=Chubby Checker - Let's Twist Again
TTITLE12=Chris Montez - Let's Dance
TTITLE13=B. Bumble and The Stingers - Nut Rocker
TTITLE14=Vanity Fare - Hinchin' A Ride
TTITLE15=Neil Christian - That's Nice
EXTD=
EXTT0=
EXTT1=
EXTT2=
EXTT3=
EXTT4=
EXTT5=
EXTT6=
EXTT7=
EXTT8=
EXTT9=
EXTT10=
EXTT11=
EXTT12=
EXTT13=
EXTT14=
EXTT15=
PLAYORDER=
